<svg width="57" height="57" viewBox="0 0 57 57" fill="none" xmlns="http://www.w3.org/2000/svg">
<path d="M20.2925 10.8855V1.45508H55.4607V22.4922H47.035L37.8766 31.5599V22.4922H32.0152" stroke="white" stroke-width="2.17625"/>
<ellipse cx="31.6486" cy="13.4241" rx="1.09901" ry="1.08813" fill="white"/>
<ellipse cx="37.5099" cy="13.4241" rx="1.09901" ry="1.08813" fill="white"/>
<ellipse cx="43.3715" cy="13.4241" rx="1.09901" ry="1.08813" fill="white"/>
<path d="M27.9963 27.9324C27.9963 33.6376 23.7991 38.0883 18.827 38.0883C13.8548 38.0883 9.65771 33.6376 9.65771 27.9324C9.65771 22.2273 13.8548 17.7766 18.827 17.7766C23.7991 17.7766 27.9963 22.2273 27.9963 27.9324Z" stroke="white" stroke-width="2.17625"/>
<path d="M8.93579 27.5699C11.0117 28.2953 16.1892 28.5129 20.2922 23.5801C21.4645 28.2227 26.3978 28.1744 28.7179 27.5699" stroke="white" stroke-width="2.17625"/>
<path d="M14.4309 37.3631V42.441C10.157 43.4083 1.60913 46.1407 1.60913 49.3325C1.60913 52.5243 1.60913 54.5313 1.60913 55.1358H36.7774V50.3457C36.7774 49.6829 36.6073 49.0241 36.1833 48.5147C34.5328 46.532 30.5687 43.4484 23.9556 42.441C23.9556 38.6689 23.9556 36.7586 23.9556 36.6377" stroke="white" stroke-width="2.17625"/>
</svg>
